# xmcd CD database file
#
# Track frame offsets:
#	150
#	33203
#	50782
#	77011
#	105865
#	129968
#	160072
#	191726
#	215367
#
# Disc length: 3643 seconds
#
# Revision: 0
# Processed by: cddbd v1.5.1PL2 Copyright (c) Steve Scherf et al.
# Submitted via: CDex 1.51
#
DISCID=6b0e3909
DTITLE=The Jeff Healey Band - Evil Blues 
DYEAR=1993
DGENRE=Blues
TTITLE0=Evil And Here To Stay
TTITLE1=Confidence Man
TTITLE2=It Could All Get Blown Away
TTITLE3=Lost In Your Eyes
TTITLE4=While My Guitar Gently Weeps
TTITLE5=Heart Of An Angel
TTITLE6=Angel Eyes
TTITLE7=Roadhouse Blues
TTITLE8=See The Light
EXTD=YEAR: 1993
EXTT0=
EXTT1=
EXTT2=
EXTT3=
EXTT4=
EXTT5=
EXTT6=
EXTT7=
EXTT8=
PLAYORDER=
